<svg id="ebOh6mMlAFQ1" xmlns="http://www.w3.org/2000/svg" xmlns:xlink="http://www.w3.org/1999/xlink" viewBox="0 -960 960 960" shape-rendering="geometricPrecision" text-rendering="geometricPrecision"><path d="M477.114448,-367.891229q50,0,85-35t35-85-35-85-85-35-85,35-35,85t35,85t85,35Zm0,80q-83,0-141.5-58.5t-58.5-141.5t58.5-141.5t141.5-58.5t141.5,58.5t58.5,141.5-58.5,141.5-141.5,58.5Zm-280-160h-160v-80h160v80Zm240,400v-160h80v160h-80Zm-286-172l101-97l55,53-97,101-59-57Zm326-268" transform="translate(0 1.75792)"/></svg>
