<svg class="icon-svg" xmlns="http://www.w3.org/2000/svg" viewBox="0 0 24 24" fill="none" stroke="currentColor" stroke-width="2" stroke-linecap="round" stroke-linejoin="round" aria-hidden>
  <path d="M12 3a8 8 0 0 0-4 14v3a2 2 0 0 0 2 2h4a2 2 0 0 0 2-2v-3a8 8 0 0 0-4-14z"/>
  <path d="M12 3a8 8 0 0 1 4 14v3a2 2 0 0 1-2 2h-4a2 2 0 0 1-2-2v-3a8 8 0 0 1 4-14z"/>
  <path d="M12 6v2"/>
  <path d="M12 16v2"/>
  <line x1="12" y1="12" x2="12" y2="21"/>
  <circle cx="14.5" cy="14" r="1"/>
  <circle cx="14.5" cy="16.5" r="1"/>
  <circle cx="14.5" cy="19" r="1"/>
  <line x1="12" y1="14" x2="13.5" y2="14"/>
  <line x1="12" y1="16.5" x2="13.5" y2="16.5"/>
  <line x1="12" y1="19" x2="13.5" y2="19"/>
</svg>
